# xmcd
#
# Track frame offsets:
#	150
#	18207
#	40960
#	60940
#	85632
#	105605
#	120400
#	139182
#
# Disc length: 2086 seconds
#
# Revision: 1
# Processed by: cddbd v1.4PL0 Copyright (c) Steve Scherf et al.
# Submitted via: audiograbber 1.81.03
#
DISCID=57082408
DTITLE=Various Artist - House of Blues- Highlights from Alligator Records
DYEAR=2001
DGENRE=Blues
TTITLE0=Shemekia Copeland - Whole Lotta Water
TTITLE1=Rusty Zinn - The Chill
TTITLE2=Marcia Ball - Louella
TTITLE3=Luther Allison - Playing a Losing Game
TTITLE4=Micheal Burks - Got a Way with Women
TTITLE5=Saffire the Uppity Blues Woman - He Makes It Hard
TTITLE6=The Holmes Brothers - Speaking in Tounges
TTITLE7=Dave Hole - Borrowed Time
EXTD=From the House of Blues, Chicago.
EXTT0=
EXTT1=
EXTT2=
EXTT3=
EXTT4=
EXTT5=
EXTT6=
EXTT7=
PLAYORDER=
